<?xml version="1.0" encoding="utf-8"?>
<!-- Generator: Adobe Illustrator 25.0.0, SVG Export Plug-In . SVG Version: 6.00 Build 0)  -->
<svg version="1.1" id="Layer_1" xmlns="http://www.w3.org/2000/svg" xmlns:xlink="http://www.w3.org/1999/xlink" x="0px" y="0px"
	 viewBox="0 0 85.15 30" style="enable-background:new 0 0 85.15 30;" xml:space="preserve">
<style type="text/css">
	.st0{fill:url(#SVGID_1_);}
</style>
<linearGradient id="SVGID_1_" gradientUnits="userSpaceOnUse" x1="4.017" y1="15.5496" x2="80.4725" y2="15.5496">
	<stop  offset="0.1925" style="stop-color:#DC1FFF"/>
	<stop  offset="0.9068" style="stop-color:#06FCB2"/>
</linearGradient>
<path class="st0" d="M10.19,28.45L1.94,13.06h6.12l3.75,8.31l3.69-8.31h3.66l3.69,8.31l3.75-8.31h6.12l-8.25,15.39h-3.6l-3.54-7.95
	l-3.54,7.95H10.19z M40.79,12.61c5.1,0,9.18,3.36,9.18,8.16c0,4.74-3.87,8.13-9.18,8.13c-5.55,0-9.27-3.39-9.27-8.13
	C31.52,15.97,35.6,12.61,40.79,12.61z M40.76,24.37c2.07,0,3.57-1.5,3.57-3.6c0-2.13-1.59-3.63-3.57-3.63c-2.01,0-3.6,1.5-3.6,3.63
	C37.16,22.87,38.6,24.37,40.76,24.37z M60.02,12.61c5.1,0,9.18,3.36,9.18,8.16c0,4.74-3.87,8.13-9.18,8.13
	c-5.55,0-9.27-3.39-9.27-8.13C50.75,15.97,54.83,12.61,60.02,12.61z M59.99,24.37c2.07,0,3.57-1.5,3.57-3.6
	c0-2.13-1.59-3.63-3.57-3.63c-2.01,0-3.6,1.5-3.6,3.63C56.39,22.87,57.83,24.37,59.99,24.37z M72.44,9.79
	c0.03-4.5,2.19-7.59,6.03-7.59c2.7,0,4.38,1.38,4.38,1.38l-1.86,3.75c0,0-0.72-0.42-1.59-0.42c-1.35,0-1.65,0.9-1.65,3.03v3.12h3.54
	v4.05h-3.54v11.34h-5.31V17.11h-2.22v-4.05h2.22V9.79z"/>
</svg>